<?xml version="1.0" encoding="UTF-8"?>
<!DOCTYPE svg PUBLIC "-//W3C//DTD SVG 1.1//EN" "http://www.w3.org/Graphics/SVG/1.1/DTD/svg11.dtd">
<svg version="1.2" width="420mm" height="297mm" viewBox="0 0 42000 29700" preserveAspectRatio="xMidYMid" fill-rule="evenodd" stroke-width="28.222" stroke-linejoin="round" xmlns="http://www.w3.org/2000/svg" xmlns:ooo="http://xml.openoffice.org/svg/export" xmlns:xlink="http://www.w3.org/1999/xlink" xmlns:presentation="http://sun.com/xmlns/staroffice/presentation" xmlns:smil="http://www.w3.org/2001/SMIL20/" xmlns:anim="urn:oasis:names:tc:opendocument:xmlns:animation:1.0" xml:space="preserve">
 <defs class="ClipPathGroup">
  <clipPath id="presentation_clip_path" clipPathUnits="userSpaceOnUse">
   <rect x="0" y="0" width="42000" height="29700"/>
  </clipPath>
  <clipPath id="presentation_clip_path_shrink" clipPathUnits="userSpaceOnUse">
   <rect x="42" y="29" width="41916" height="29641"/>
  </clipPath>
 </defs>
 <defs class="TextShapeIndex">
  <g ooo:slide="id1" ooo:id-list="id3"/>
 </defs>
 <defs class="EmbeddedBulletChars">
  <g id="bullet-char-template-57356" transform="scale(0.00048828125,-0.00048828125)">
   <path d="M 580,1141 L 1163,571 580,0 -4,571 580,1141 Z"/>
  </g>
  <g id="bullet-char-template-57354" transform="scale(0.00048828125,-0.00048828125)">
   <path d="M 8,1128 L 1137,1128 1137,0 8,0 8,1128 Z"/>
  </g>
  <g id="bullet-char-template-10146" transform="scale(0.00048828125,-0.00048828125)">
   <path d="M 174,0 L 602,739 174,1481 1456,739 174,0 Z M 1358,739 L 309,1346 659,739 1358,739 Z"/>
  </g>
  <g id="bullet-char-template-10132" transform="scale(0.00048828125,-0.00048828125)">
   <path d="M 2015,739 L 1276,0 717,0 1260,543 174,543 174,936 1260,936 717,1481 1274,1481 2015,739 Z"/>
  </g>
  <g id="bullet-char-template-10007" transform="scale(0.00048828125,-0.00048828125)">
   <path d="M 0,-2 C -7,14 -16,27 -25,37 L 356,567 C 262,823 215,952 215,954 215,979 228,992 255,992 264,992 276,990 289,987 310,991 331,999 354,1012 L 381,999 492,748 772,1049 836,1024 860,1049 C 881,1039 901,1025 922,1006 886,937 835,863 770,784 769,783 710,716 594,584 L 774,223 C 774,196 753,168 711,139 L 727,119 C 717,90 699,76 672,76 641,76 570,178 457,381 L 164,-76 C 142,-110 111,-127 72,-127 30,-127 9,-110 8,-76 1,-67 -2,-52 -2,-32 -2,-23 -1,-13 0,-2 Z"/>
  </g>
  <g id="bullet-char-template-10004" transform="scale(0.00048828125,-0.00048828125)">
   <path d="M 285,-33 C 182,-33 111,30 74,156 52,228 41,333 41,471 41,549 55,616 82,672 116,743 169,778 240,778 293,778 328,747 346,684 L 369,508 C 377,444 397,411 428,410 L 1163,1116 C 1174,1127 1196,1133 1229,1133 1271,1133 1292,1118 1292,1087 L 1292,965 C 1292,929 1282,901 1262,881 L 442,47 C 390,-6 338,-33 285,-33 Z"/>
  </g>
  <g id="bullet-char-template-9679" transform="scale(0.00048828125,-0.00048828125)">
   <path d="M 813,0 C 632,0 489,54 383,161 276,268 223,411 223,592 223,773 276,916 383,1023 489,1130 632,1184 813,1184 992,1184 1136,1130 1245,1023 1353,916 1407,772 1407,592 1407,412 1353,268 1245,161 1136,54 992,0 813,0 Z"/>
  </g>
  <g id="bullet-char-template-8226" transform="scale(0.00048828125,-0.00048828125)">
   <path d="M 346,457 C 273,457 209,483 155,535 101,586 74,649 74,723 74,796 101,859 155,911 209,963 273,989 346,989 419,989 480,963 531,910 582,859 608,796 608,723 608,648 583,586 532,535 482,483 420,457 346,457 Z"/>
  </g>
  <g id="bullet-char-template-8211" transform="scale(0.00048828125,-0.00048828125)">
   <path d="M -4,459 L 1135,459 1135,606 -4,606 -4,459 Z"/>
  </g>
  <g id="bullet-char-template-61548" transform="scale(0.00048828125,-0.00048828125)">
   <path d="M 173,740 C 173,903 231,1043 346,1159 462,1274 601,1332 765,1332 928,1332 1067,1274 1183,1159 1299,1043 1357,903 1357,740 1357,577 1299,437 1183,322 1067,206 928,148 765,148 601,148 462,206 346,322 231,437 173,577 173,740 Z"/>
  </g>
 </defs>
 <g>
  <g id="id2" class="Master_Slide">
   <g id="bg-id2" class="Background"/>
   <g id="bo-id2" class="BackgroundObjects"/>
  </g>
 </g>
 <g class="SlideGroup">
  <g>
   <g id="container-id1">
    <g id="id1" class="Slide" clip-path="url(#presentation_clip_path)">
     <g class="Page">
      <g id="bg-id1" class="Background">
       <path fill="#2f343f" stroke="none" d="M 21000,29699 L 0,29699 0,0 41999,0 41999,29699 21000,29699 Z"/>
      </g>
      <g class="Graphic">
       <g id="id3">
        <rect class="BoundingBox" stroke="none" fill="none" x="17500" y="10200" width="7801" height="7801"/>
        <defs>
         <clipPath id="clip_path_1" clipPathUnits="userSpaceOnUse">
          <path d="M 17500,10200 L 25300,10200 25300,18000 17500,18000 17500,10200 Z"/>
         </clipPath>
        </defs>
        <g clip-path="url(#clip_path_1)">
         <path fill="#ff9989" stroke="none" d="M 22114,13252 C 22240,13252 22341,13353 22341,13478 22341,13604 22240,13705 22114,13705 21989,13705 21887,13604 21887,13478 21887,13353 21989,13252 22114,13252 L 22114,13252 Z"/>
         <path fill="#ff9989" stroke="none" d="M 24492,16600 C 24334,16303 24155,15966 24155,15438 24155,14554 24645,14243 24665,14231 24738,14188 24762,14094 24719,14021 24676,13949 24582,13925 24510,13968 24483,13984 23850,14371 23850,15438 23850,16042 24056,16431 24222,16743 24341,16967 24435,17144 24435,17346 24435,17491 24403,17595 24344,17649 24283,17703 24204,17695 24202,17695 24195,17694 24188,17693 24180,17693 L 23618,17693 C 23684,17591 23722,17470 23722,17339 L 23722,10458 C 23722,10390 23677,10330 23611,10311 23545,10293 23474,10321 23439,10379 L 22693,11613 C 22465,11609 21793,11604 19780,11604 19353,11604 19142,11604 19035,11605 L 18348,10282 C 18316,10220 18244,10188 18176,10204 18108,10221 18060,10282 18060,10353 L 18060,17339 C 18060,17703 18355,17998 18719,17998 L 21051,17998 23064,17998 24172,17998 C 24182,17999 24196,18000 24214,18000 24288,18000 24423,17983 24541,17881 24673,17767 24740,17587 24740,17346 24740,17068 24619,16841 24492,16600 L 24492,16600 Z M 19668,14011 C 19374,14011 19136,13772 19136,13478 19136,13185 19374,12946 19668,12946 19961,12946 20200,13185 20200,13478 20200,13772 19961,14011 19668,14011 L 19668,14011 Z M 21158,14624 L 21046,14624 21033,14836 C 21029,14917 20961,14980 20881,14980 20878,14980 20875,14980 20872,14979 20788,14975 20724,14902 20729,14818 L 20740,14624 20624,14624 C 20540,14624 20471,14556 20471,14471 20471,14387 20540,14319 20624,14319 L 21158,14319 C 21243,14319 21311,14387 21311,14471 21311,14556 21243,14624 21158,14624 L 21158,14624 Z M 22114,14011 C 21821,14011 21582,13772 21582,13478 21582,13185 21821,12946 22114,12946 22408,12946 22647,13185 22647,13478 22647,13772 22408,14011 22114,14011 L 22114,14011 Z"/>
         <path fill="#ff9989" stroke="none" d="M 19895,13478 C 19895,13518 19884,13557 19864,13592 19844,13626 19816,13655 19781,13675 19747,13695 19708,13705 19668,13705 19628,13705 19589,13695 19554,13675 19520,13655 19491,13626 19471,13592 19451,13557 19441,13518 19441,13478 19441,13439 19451,13399 19471,13365 19491,13330 19520,13302 19554,13282 19589,13262 19628,13251 19668,13251 19708,13251 19747,13262 19781,13282 19816,13302 19844,13330 19864,13365 19884,13399 19895,13439 19895,13478 L 19895,13478 Z"/>
        </g>
       </g>
      </g>
     </g>
    </g>
   </g>
  </g>
 </g>
</svg>